<svg xmlns="http://www.w3.org/2000/svg" width="780" height="440" viewBox="0 0 780 440" fill="none"><rect width="780" height="440" fill="url(#paint0_linear_20623_43)"></rect><path d="M173 190.961C173 190.961 162.165 182.244 161.106 168.721C167.868 161.633 172.022 152.02 172.022 141.511C172.022 119.678 154.344 102 132.511 102C110.678 102 93 119.678 93 141.511C93 163.344 110.678 181.022 132.511 181.022C139.68 181.022 146.36 179.149 152.063 175.809C154.914 181.348 160.943 189.413 173 190.961Z" fill="#FDEFCD" stroke="#040404" stroke-width="1.5" stroke-miterlimit="10"></path><path d="M152 136.548C152 131.226 147.567 127 142.342 127C137.75 127 134.108 130.13 133 134.2C131.892 130.13 128.092 127 123.658 127C118.275 127 114 131.383 114 136.548C114 136.548 114 137.174 114.158 138.27C114.158 138.426 114.158 138.426 114.158 138.583C114.95 142.809 118.908 152.983 132.842 163C132.842 163 149.625 152.043 152 138.739C151.842 137.957 152 137.33 152 136.548Z" fill="#FFBC00" stroke="#040404" stroke-width="1.5" stroke-miterlimit="10"></path><path d="M606 190.961C606 190.961 616.835 182.244 617.894 168.721C611.132 161.633 606.978 152.02 606.978 141.511C606.978 119.678 624.656 102 646.489 102C668.322 102 686 119.678 686 141.511C686 163.344 668.322 181.022 646.489 181.022C639.32 181.022 632.64 179.149 626.937 175.809C624.086 181.348 618.057 189.413 606 190.961Z" fill="white" stroke="#040404" stroke-width="1.5" stroke-miterlimit="10"></path><path d="M647.455 119.923L653.273 131.671C653.496 132.119 653.944 132.566 654.504 132.566L667.482 134.469C668.937 134.692 669.497 136.371 668.49 137.378L659.091 146.552C658.643 147 658.531 147.559 658.643 148.007L660.881 160.986C661.105 162.329 659.65 163.448 658.42 162.776L646.783 156.622C646.336 156.399 645.664 156.399 645.217 156.622L633.58 162.776C632.35 163.448 630.895 162.329 631.119 160.986L633.357 148.007C633.469 147.448 633.245 146.888 632.909 146.552L623.51 137.378C622.503 136.371 623.063 134.692 624.518 134.469L637.496 132.566C638.056 132.455 638.503 132.119 638.727 131.671L644.545 119.923C644.993 118.692 646.783 118.692 647.455 119.923Z" fill="#205BC3" stroke="#040404" stroke-width="1.5" stroke-miterlimit="10"></path><path d="M571.286 108H209C201.268 108 195 114.268 195 122V336.168C195 343.9 201.268 350.168 209 350.168H571.286C579.018 350.168 585.286 343.9 585.286 336.168V122C585.286 114.268 579.018 108 571.286 108Z" fill="white" stroke="#040404" stroke-width="1.5" stroke-miterlimit="10" stroke-linecap="round" stroke-linejoin="round"></path><path d="M220.327 279.735C224.571 279.735 228.011 276.295 228.011 272.051C228.011 267.808 224.571 264.368 220.327 264.368C216.084 264.368 212.644 267.808 212.644 272.051C212.644 276.295 216.084 279.735 220.327 279.735Z" fill="#59CB59" stroke="#040404" stroke-width="1.5" stroke-miterlimit="10" stroke-linecap="round" stroke-linejoin="round"></path><path d="M232.705 279.735C236.949 279.735 240.389 276.295 240.389 272.051C240.389 267.808 236.949 264.368 232.705 264.368C228.462 264.368 225.022 267.808 225.022 272.051C225.022 276.295 228.462 279.735 232.705 279.735Z" fill="#A1C2F8" stroke="#040404" stroke-width="1.5" stroke-miterlimit="10" stroke-linecap="round" stroke-linejoin="round"></path><path d="M245.083 279.735C249.327 279.735 252.767 276.295 252.767 272.051C252.767 267.808 249.327 264.368 245.083 264.368C240.84 264.368 237.4 267.808 237.4 272.051C237.4 276.295 240.84 279.735 245.083 279.735Z" fill="#CE3665" stroke="#040404" stroke-width="1.5" stroke-miterlimit="10"></path><path d="M260.59 134.006H304.413" stroke="#040404" stroke-width="1.5" stroke-miterlimit="10" stroke-linecap="round" stroke-linejoin="round"></path><path d="M264.146 322.138H300.002" stroke="#040404" stroke-width="1.5" stroke-miterlimit="10" stroke-linecap="round" stroke-linejoin="round"></path><path d="M260.59 272.763H343.115" stroke="#040404" stroke-width="1.5" stroke-miterlimit="10" stroke-linecap="round" stroke-linejoin="round"></path><path d="M481.132 272.763H563.657" stroke="#040404" stroke-width="1.5" stroke-miterlimit="10" stroke-linecap="round" stroke-linejoin="round"></path><path d="M260.59 148.801H400.598" stroke="#040404" stroke-width="1.5" stroke-miterlimit="10" stroke-linecap="round" stroke-linejoin="round"></path><path d="M541.753 203.329H217.771C214.356 203.329 211.653 200.625 211.653 197.211V195.645C211.653 192.231 214.356 189.527 217.771 189.527H541.753C545.167 189.527 547.871 192.231 547.871 195.645V197.211C547.871 200.625 545.025 203.329 541.753 203.329Z" fill="#C7DBF9" stroke="#040404" stroke-width="1.5" stroke-miterlimit="10" stroke-linecap="round" stroke-linejoin="round"></path><path d="M394.238 236.079H255.525C252.111 236.079 249.407 233.375 249.407 229.961V228.395C249.407 224.981 252.111 222.277 255.525 222.277H394.238C397.653 222.277 400.356 224.981 400.356 228.395V229.961C400.356 233.375 397.51 236.079 394.238 236.079Z" fill="#205BC3" stroke="#040404" stroke-width="1.5" stroke-miterlimit="10" stroke-linecap="round" stroke-linejoin="round"></path><path d="M223.489 226.869C224.058 227.154 224.485 227.439 225.054 227.865C227.046 229.857 227.046 233.13 225.054 235.122L220.217 239.96C218.225 241.952 214.952 241.952 212.96 239.96C210.968 237.968 210.968 234.695 212.96 232.703L216.517 229.146" stroke="#040404" stroke-width="1.5" stroke-miterlimit="10" stroke-linecap="round" stroke-linejoin="round"></path><path d="M222.775 233.272C222.064 232.988 221.352 232.561 220.783 231.992C218.791 230 218.791 226.727 220.783 224.735L225.621 219.898C227.613 217.906 230.885 217.906 232.877 219.898C234.869 221.889 234.869 225.162 232.877 227.154L229.463 230.569" stroke="#040404" stroke-width="1.5" stroke-miterlimit="10" stroke-linecap="round" stroke-linejoin="round"></path><path d="M342.409 322.138H378.122" stroke="#040404" stroke-width="1.5" stroke-miterlimit="10" stroke-linecap="round" stroke-linejoin="round"></path><path d="M420.664 322.138H456.378" stroke="#040404" stroke-width="1.5" stroke-miterlimit="10" stroke-linecap="round" stroke-linejoin="round"></path><path d="M498.92 322.138H534.633" stroke="#040404" stroke-width="1.5" stroke-miterlimit="10" stroke-linecap="round" stroke-linejoin="round"></path><path d="M213.344 297H552.344" stroke="#040404" stroke-width="1.5" stroke-miterlimit="10" stroke-linecap="round" stroke-linejoin="round"></path><path d="M333.441 323.132C334.295 322.279 334.864 320.998 334.864 319.717C334.864 317.014 332.587 314.737 329.884 314.737H325.758C323.054 314.737 320.778 317.014 320.778 319.717C320.778 322.421 323.054 324.697 325.758 324.697H329.03V327.116L333.441 323.132Z" fill="white" stroke="#040404" stroke-width="1.5" stroke-miterlimit="10" stroke-linecap="round" stroke-linejoin="round"></path><path d="M399.47 325.408V317.298C399.47 316.587 400.039 316.018 400.751 316.018H407.438" stroke="#040404" stroke-width="1.5" stroke-linecap="round" stroke-linejoin="round"></path><path d="M405.451 317.583L407.158 315.875L405.451 314.168H406.874L408.581 315.875L406.874 317.583H405.451Z" fill="#040404"></path><path d="M477.009 316.018H492.802L484.265 328.255L483.269 320.429L477.009 316.018Z" stroke="#040404" stroke-width="1.5" stroke-miterlimit="10" stroke-linecap="round" stroke-linejoin="round"></path><path d="M483.266 320.429L492.799 316.018" stroke="#040404" stroke-width="1.5" stroke-miterlimit="10" stroke-linecap="round" stroke-linejoin="round"></path><path d="M242.145 123.685H216.62C213.774 123.685 211.466 125.992 211.466 128.838V154.363C211.466 157.21 213.774 159.517 216.62 159.517H242.145C244.991 159.517 247.299 157.21 247.299 154.363V128.838C247.299 125.992 244.991 123.685 242.145 123.685Z" fill="#205BC3" stroke="#040404" stroke-width="1.5" stroke-miterlimit="10"></path><path d="M226.173 153.882C226.07 153.83 226.032 153.74 226.038 153.624C226.038 153.534 226.038 153.45 226.038 153.36C226.038 149.821 226.038 146.276 226.038 142.737C226.038 140.916 226.038 139.095 226.038 137.275C226.038 137.223 226.038 137.172 226.038 137.12C226.051 137.017 226.102 136.966 226.205 136.946C226.244 136.946 226.276 136.946 226.315 136.946C227.833 136.946 229.345 136.946 230.864 136.946C231.089 136.946 231.14 136.998 231.14 137.223C231.14 137.641 231.128 138.066 231.128 138.484C231.128 138.684 231.134 138.883 231.14 139.089C231.14 139.102 231.14 139.115 231.153 139.153C231.185 139.108 231.211 139.076 231.231 139.05C231.443 138.748 231.675 138.458 231.938 138.201C232.672 137.474 233.54 136.985 234.538 136.734C234.93 136.638 235.336 136.573 235.741 136.554C236.037 136.541 236.339 136.528 236.642 136.535C237.144 136.547 237.646 136.625 238.141 136.734C238.585 136.837 239.022 136.972 239.434 137.178C240.264 137.583 240.914 138.188 241.384 138.986C241.673 139.482 241.879 140.009 242.034 140.562C242.156 141 242.253 141.444 242.304 141.894C242.33 142.107 242.343 142.319 242.355 142.525C242.381 142.905 242.401 143.284 242.413 143.664C242.426 144.153 242.433 144.642 242.446 145.131C242.446 145.221 242.446 145.311 242.446 145.408C242.446 145.446 242.458 145.485 242.458 145.523V153.727C242.458 153.727 242.439 153.785 242.426 153.824C242.401 153.843 242.375 153.862 242.349 153.882H237.24C237.15 153.817 237.124 153.721 237.124 153.611C237.124 153.438 237.124 153.27 237.124 153.097C237.124 150.503 237.124 147.917 237.124 145.324C237.124 144.873 237.124 144.423 237.086 143.979C237.034 143.471 236.918 142.975 236.7 142.512C236.449 141.978 236.063 141.592 235.503 141.392C235.233 141.296 234.95 141.251 234.666 141.238C234.364 141.225 234.068 141.232 233.772 141.277C233.341 141.347 232.948 141.489 232.595 141.746C232.209 142.023 231.951 142.396 231.765 142.834C231.533 143.387 231.43 143.966 231.391 144.558C231.366 144.976 231.366 145.401 231.366 145.819C231.366 148.38 231.366 150.941 231.366 153.508C231.366 153.573 231.366 153.631 231.366 153.695C231.366 153.779 231.333 153.843 231.263 153.888H226.173V153.882Z" fill="white"></path><path d="M217.638 153.88C217.528 153.822 217.503 153.726 217.503 153.61C217.503 153.108 217.503 152.6 217.503 152.098C217.503 152.034 217.503 151.969 217.503 151.899C217.503 147.028 217.503 142.157 217.503 137.28C217.503 137.215 217.503 137.145 217.509 137.08C217.522 136.984 217.554 136.952 217.651 136.945C217.702 136.945 217.76 136.945 217.818 136.945C219.086 136.945 220.347 136.945 221.614 136.945C221.93 136.945 222.245 136.945 222.56 136.945C222.792 136.945 222.856 137.003 222.856 137.235C222.856 137.852 222.856 138.47 222.856 139.088C222.856 143.502 222.856 147.916 222.856 152.336C222.856 152.735 222.856 153.134 222.856 153.533C222.856 153.565 222.856 153.597 222.856 153.629C222.856 153.732 222.824 153.822 222.727 153.88H217.638Z" fill="white"></path><path d="M220.354 128.574C220.451 128.587 220.547 128.6 220.644 128.613C221.242 128.703 221.77 128.941 222.22 129.346C222.793 129.861 223.127 130.504 223.224 131.27C223.333 132.139 223.108 132.917 222.555 133.593C222.04 134.224 221.371 134.597 220.56 134.693C219.486 134.822 218.572 134.481 217.838 133.677C217.433 133.226 217.201 132.692 217.118 132.094C217.118 132.049 217.092 132.01 217.079 131.972C217.079 131.759 217.079 131.547 217.079 131.335C217.092 131.289 217.111 131.244 217.118 131.199C217.234 130.421 217.581 129.777 218.186 129.269C218.585 128.941 219.042 128.722 219.55 128.632C219.691 128.606 219.833 128.593 219.968 128.568C220.09 128.568 220.219 128.568 220.341 128.568L220.354 128.574Z" fill="white"></path><path d="M244.009 324.891C243.57 325.22 243.57 325.659 243.57 325.989C243.57 326.318 244.009 326.538 244.448 326.538C245.547 326.538 246.645 326.538 247.743 326.538C249.061 326.538 250.269 326.538 251.587 326.538C252.027 326.538 254.223 326.428 254.223 325.989C254.223 324.122 254.223 322.145 254.223 320.278C254.223 319.289 251.697 318.41 251.038 317.642C250.489 316.983 249.94 316.324 249.391 315.665C249.171 315.445 249.061 315.115 249.061 314.786C249.061 314.456 249.061 314.127 248.951 313.688C248.951 313.358 248.622 313.029 248.402 313.029C247.853 312.919 247.414 313.138 247.304 313.468C246.755 314.456 246.865 315.445 247.084 316.433C247.194 316.983 247.414 317.422 247.633 317.861C247.743 318.191 247.743 318.301 247.414 318.301C246.315 318.301 245.217 318.301 244.119 318.301C243.24 318.301 242.911 318.96 243.02 319.728C243.13 320.168 243.24 320.387 243.789 320.607C243.46 320.937 243.02 321.156 243.13 321.705C243.13 322.255 243.35 322.584 244.009 322.694C243.57 323.023 243.35 323.353 243.35 323.792C243.35 324.451 243.57 324.671 244.009 324.891Z" stroke="#040404" stroke-width="1.5" stroke-miterlimit="10"></path><path d="M479.508 344.295C530.4 344.295 571.656 303.039 571.656 252.147C571.656 201.256 530.4 160 479.508 160C428.617 160 387.361 201.256 387.361 252.147C387.361 303.039 428.617 344.295 479.508 344.295Z" fill="#C7DBF9" stroke="#040404" stroke-width="1.5" stroke-miterlimit="10" stroke-linecap="round" stroke-linejoin="round"></path><path opacity="0.8" d="M479.516 320.932C517.504 320.932 548.3 290.137 548.3 252.149C548.3 214.161 517.504 183.365 479.516 183.365C441.528 183.365 410.732 214.161 410.732 252.149C410.732 290.137 441.528 320.932 479.516 320.932Z" fill="white" stroke="#040404" stroke-width="1.5" stroke-miterlimit="10" stroke-linecap="round" stroke-linejoin="round"></path><path d="M418.375 322.433L400.707 301.819L387.789 312.892L405.457 333.505L418.375 322.433Z" fill="#205BC3" stroke="#040404" stroke-width="1.5" stroke-miterlimit="10" stroke-linecap="round" stroke-linejoin="round"></path><path d="M408.569 337.128L384.682 309.259L304.344 378.118L328.23 405.987L408.569 337.128Z" fill="#C7DBF9" stroke="#040404" stroke-width="1.5" stroke-miterlimit="10" stroke-linecap="round" stroke-linejoin="round"></path><path d="M508.065 257.822H493.852V246.178H508.065C510.233 246.178 512 244.428 512 242.243C512 240.059 510.233 238.309 508.065 238.309H493.852V223.935C493.852 221.751 492.085 220 489.917 220C488.825 220 487.845 220.434 487.139 221.156C486.416 221.863 485.982 222.859 485.982 223.935V238.309H474.355V223.935C474.355 221.751 472.588 220 470.42 220C469.328 220 468.332 220.434 467.642 221.156C466.919 221.863 466.485 222.859 466.485 223.935V238.309H451.935C449.767 238.309 448 240.075 448 242.243C448 243.336 448.434 244.331 449.156 245.022C449.879 245.745 450.859 246.178 451.935 246.178H466.485V257.822H451.935C449.767 257.822 448 259.572 448 261.757C448 262.849 448.434 263.828 449.156 264.535C449.879 265.258 450.859 265.691 451.935 265.691H466.485V280.065C466.485 282.249 468.236 284 470.42 284C472.604 284 474.355 282.249 474.355 280.065V265.691H485.982V280.065C485.982 282.249 487.749 284 489.917 284C492.085 284 493.852 282.249 493.852 280.065V265.691H508.065C510.233 265.691 512 263.925 512 261.757C512 259.588 510.233 257.822 508.065 257.822ZM485.966 257.822H474.339V246.178H485.966V257.822Z" fill="#205BC3" stroke="#040404" stroke-width="1.5" stroke-miterlimit="10"></path><path d="M173.289 283.031L169.755 284.091L172.229 287.271C173.289 288.684 173.996 290.451 173.996 292.218C173.996 296.105 171.169 299.638 167.282 299.991L163.748 300.698L165.515 303.878C166.222 304.938 166.575 306.352 166.575 307.412C166.575 311.652 163.395 315.185 159.155 315.539H112.866C112.866 315.539 107.212 315.539 102.972 312.005C101.912 311.299 101.205 310.592 100.499 310.239L99.4385 309.885V266.776L104.385 262.536L120.639 232.148C121.346 231.088 122.053 229.675 122.053 228.261C122.406 226.848 122.406 225.434 122.406 224.021L120.993 207.06C122.053 206.353 123.466 206 124.88 206C131.947 206 137.954 217.307 137.954 226.494C137.954 227.908 137.954 228.968 137.6 230.381L134.774 248.755H170.109C172.229 248.755 174.702 249.816 176.116 251.229C177.529 252.642 178.589 254.762 178.589 256.883C178.589 259.356 177.529 261.829 175.409 263.243L172.229 265.716L175.762 267.836C178.236 269.25 180.003 272.077 180.003 274.903C178.942 278.79 176.469 281.97 173.289 283.031Z" fill="#FFFEFD" stroke="#040404" stroke-width="1.5" stroke-miterlimit="10"></path><path d="M70.8268 260.073H96.6215C98.3882 260.073 99.4483 261.487 99.4483 262.9V313.076C99.4483 314.843 98.0349 315.903 96.6215 315.903H70.8268C69.0601 315.903 68 314.489 68 313.076V262.9C68 261.133 69.4134 260.073 70.8268 260.073Z" fill="#205BC3" stroke="#040404" stroke-width="1.5" stroke-miterlimit="10"></path><path d="M640.189 229.621V316.104H669.811V229.621H640.189Z" fill="#FDEFCD" stroke="#040404" stroke-width="1.5" stroke-linecap="round" stroke-linejoin="round"></path><path d="M680.378 208V316.104H710V208H680.378Z" fill="#FFBC00" stroke="#040404" stroke-width="1.5" stroke-linecap="round" stroke-linejoin="round"></path><path d="M600 261.069V316.103H629.622V261.069H600Z" fill="white" stroke="#040404" stroke-width="1.5" stroke-linecap="round" stroke-linejoin="round"></path><defs><linearGradient id="paint0_linear_20623_43" x1="183.5" y1="404.5" x2="741.5" y2="-290" gradientUnits="userSpaceOnUse"><stop stop-color="#F5D58F"></stop><stop offset="1" stop-color="#FDEFCD"></stop></linearGradient></defs></svg>